Patient4_TMGait_0pt2_03_left_09_EMG.mot
version=1
nRows=26
nColumns=33
inDegrees=no
endheader
time	1LAddLong	2LGlutMax	3LGlutMed	4LIliopsoas	5LSemiMemb	6LBicFemLong	7LRecFem	8LVastMed	9LVastLat	10LGasMed	11LTibAnt	12lTibPost	13LPeroneusLong	14LSol	15LExtDigLong	16LFlexDigLong	17RAddLong	18RGlutMax	19RGlutMed	20RIliopsoas	21RSemiMemb	22RBicFemLong	23RRecFem	24RVastMed	25RVastLat	26RGasMed	27RTibAnt	28RTibPost	29RPeroneusLong	30RSol	31RExtDigLong	32RFlexDigLong
19.56	0.019531	0.051117	-0.064697	0.005798	0.076599	0.055847	0.010071	0.001984	-0.02594	0.086975	-0.00946	0.0177	0.15472	-0.016022	0.032196	-0.071716	0.003357	-0.072479	1.2006	-0.1619	-0.071259	0.013733	-0.12177	0.17929	0.29633	-0.014954	-0.5394	0.004578	0.13214	-0.11856	-0.002289	-0.00824
19.561	0.009766	0.045471	-0.11505	0.009308	0.04776	0.075226	0.024414	0.007172	-0.022583	0.023956	0.00946	-0.010071	0.18463	0.019989	0.029449	-0.054626	0.019989	-0.13443	1.1093	-0.13153	0.00824	0.002441	-0.002899	0.11154	0.17487	-0.003052	-1.2579	0.010376	0.21316	-0.25055	-0.001984	-0.001068
19.562	0.011749	0.047302	-0.11459	0.00061	0.069885	0.045776	0.088043	0.00885	-0.051575	-0.031128	0.003967	-0.11261	0.13123	-0.10834	0.005493	-0.020905	0.028381	-0.16098	0.81222	0.014801	0.080261	0.015869	-0.032959	-0.010223	0.14252	-0.007019	-1.0178	0.006104	0.11917	-0.16388	-0.003052	-0.006866
19.563	0.00946	0.036621	-0.16144	-0.000305	0.051575	0.020294	0.065613	0.010529	-0.0354	0.092621	0.007172	-0.094299	0.14297	-0.27649	0.001526	0.011749	0.019836	-0.18127	0.10803	0.075073	-0.007324	0.044861	-0.03891	0.084991	0.22171	-0.008545	-0.67871	-0.002899	-0.014648	-0.007172	-0.001526	-0.007172
19.564	0.008545	0.029144	-0.1384	-0.012054	0.032501	-0.005798	0.037231	-0.001526	0.037689	0.056763	0.009613	0.22644	0.26535	-0.13336	-0.021362	0.021973	0.005341	-0.16525	-0.005646	0.05661	-0.068054	0.074615	0.088654	0.079346	0.13687	-0.012512	-0.38879	0.009766	-0.053711	0.003052	-0.003052	-0.005188
19.565	0.006409	0.049286	-0.09552	0.003815	0.023499	-0.015106	-0.026855	-0.010986	0.038452	-0.11871	0.009766	0.071106	-0.11215	-0.12268	-0.014038	-0.00824	0.017395	-0.16205	-0.02655	0.039673	-0.000916	0.036163	0.23071	0.21194	0.04837	-0.007019	-0.2121	0.008087	-0.015106	0.024261	-0.002899	-0.009766
19.566	-0.000153	0.029907	-0.14053	0.019531	0.025482	0.014954	-0.005341	-0.003357	0.084534	-0.031433	0.006866	0.005188	-0.005188	-0.24841	-0.033569	0.002747	0.027161	-0.16983	-0.40756	0.17166	0.025482	0.008545	0.32211	0.75806	-0.023193	-0.003967	0.11231	0.003052	0.034943	-0.10864	-0.001526	-0.009155
19.567	-0.001373	0.061493	-0.062866	0.002747	0.028992	0.016327	0.080109	0.006866	0.023804	-0.05188	0.00412	-0.036011	-0.14267	-0.10086	0.006866	0.000458	0.033722	-0.09613	0.27298	0.13504	0.062256	0.001068	0.34637	0.60501	-0.046844	-0.009766	0.25574	0.006409	0.056458	-0.12512	-0.009003	-0.011749
19.568	-0.011292	0.068665	-0.023499	0.002136	0.026398	-0.00473	0.077057	0.00885	-0.11276	-0.072174	0.014191	-0.021667	-0.17044	0.11566	0.020447	-0.007019	0.028839	-0.056	0.29999	-0.066681	0.069122	-0.010834	0.28198	0.42252	-0.06134	-0.007935	0.09613	0.003357	0.039673	-0.093689	-0.001831	-0.022888
19.569	-0.007935	0.094452	-0.095825	-0.01709	-0.035858	-0.005646	0.043335	-0.000153	-0.03067	-0.091705	0.011597	-0.01709	0.29129	0.11856	-0.023499	0.009003	0.033569	-0.002441	0.46127	-0.12634	0.054932	-0.016174	0.37048	0.074463	-0.026093	-0.006714	-0.02121	0.006256	0.06134	0.043945	0	-0.016937
19.57	-0.007324	0.028229	-0.087585	-0.007629	-0.10513	-0.014343	0.027008	0.006256	-0.021057	-0.065765	-0.019379	-0.015717	-0.11108	0.045471	-0.024719	-0.018005	0.016632	-0.043793	0.044708	0.034943	0.059509	0.007782	0.39352	-0.41306	-0.062256	-0.014343	-0.038757	0.005035	0.08255	0.026245	-0.004425	-0.02121
19.571	-0.002594	0.021057	-0.0737	-0.00824	-0.067596	-0.011597	0.024719	0.005341	-0.048065	-0.042572	-0.016785	-0.016327	-0.052338	0.062866	0.019073	-0.008392	0.001068	-0.077057	-0.38254	0.2478	0.073395	0.02182	0.27618	-0.71625	-0.001373	-0.007629	0.037994	0.001678	0.055542	0.039673	0	-0.012665
19.572	0.007782	0.041046	-0.066071	0.00885	0.020294	-0.013733	0.025787	0.006866	-0.04425	-0.023193	-0.005341	-0.016022	-0.26352	0.051117	0.00824	-0.017853	0.040588	0.016479	-0.4599	0.34103	0.072937	-0.032959	-0.075226	-0.60333	0.073547	-0.00885	0.1503	0.010376	-0.001526	0.080261	-0.001984	-0.020142
19.573	0.017395	0.038605	-0.099792	-0.002747	0.063934	-0.044098	0.003052	0.000153	-0.014648	-0.007629	-0.003662	-0.014343	-0.17731	0.076599	-0.016479	-0.01297	0.047607	0.027466	-0.56213	0.22507	0.098419	-0.019073	-0.52567	-0.42602	0.24887	-0.010376	0.20187	0.002136	0.011749	0.10132	-0.000458	-0.014648
19.574	0.018921	0.010376	-0.14267	0.00351	0.020905	-0.028687	0.032501	-0.003815	0.093994	-0.015259	0.001678	-0.012512	-0.21957	0.034332	-0.020447	-0.00412	0.054016	-0.001678	-0.17731	-0.11108	0.12238	-0.028381	-0.60074	-0.34286	0.27969	-0.007477	0.32211	0.005035	0.009918	0.060577	-0.005035	-0.018616
19.575	0.006256	0.075684	-0.12802	-0.004883	0.032806	0.024261	0.072479	-0.010376	0.073395	-0.014343	-0.004272	-0.006866	0.052338	0.032806	-0.025024	-0.018768	0.045471	0.010681	-0.15427	-0.28336	0.080261	-0.024567	-0.1683	-0.27268	0.25421	-0.010681	0.289	0.00061	-0.014496	0.1001	-0.000458	-0.015106
19.576	-0.008545	0.066071	-0.04776	-0.010376	-0.005341	0.067596	0.10147	-0.007477	0.022278	-0.003662	0.001373	-0.008545	0.27145	0.053711	-0.011444	-0.012817	0.00473	-0.010376	-0.029449	-0.27222	0.098419	-0.013733	0.13779	-0.32227	0.12543	-0.014191	0.029144	-0.000916	-0.075073	0.13001	-0.007172	-0.013123
19.577	-0.017395	0.052795	0.0914	0.002136	-0.029602	0.05722	0.11902	0.002136	-0.009003	-0.009308	0.019836	-0.009308	-0.039063	0.09903	0.023041	-0.014801	-0.034637	-0.019226	0.038605	-0.21545	0.24841	-0.019226	0.25421	-0.24124	0.048676	-0.020905	-0.029297	0.00351	-0.16892	0.10132	-0.005188	-0.007172
19.578	-0.014191	-0.00061	0.050507	0.018311	-0.071106	0.064697	0.13367	-0.004425	-0.007019	-0.019836	0.046844	-0.001526	-0.1503	0.098267	0.061798	-0.009613	-0.030212	-0.009918	-0.093536	-0.16296	0.23651	-0.06073	0.36621	-0.40527	-0.088654	-0.005798	-0.11383	0.005341	-0.1619	0.046387	-0.001984	-0.014038
19.579	-0.009003	-0.006561	-0.006714	0.00061	-0.10574	0.030975	0.13534	-0.001373	-0.023193	-0.052185	0.037994	-0.00885	-0.06897	0.076141	0.05188	-0.005951	-0.039215	-0.050964	-0.017853	-0.071259	0.26718	-0.055389	0.46753	-0.50339	-0.2739	-0.002441	-0.009766	0.00412	-0.1152	-0.032196	0.000916	-0.004578
19.58	0.019073	0.018921	-0.046387	0.011902	-0.11871	-0.020294	0.1828	-0.007935	-0.036011	-0.086975	0.018616	-0.005951	0.14435	0.060577	0.062408	-0.019989	-0.039215	0.011749	0.22934	0.091248	0.30838	-0.086975	0.54718	-0.35843	-0.32425	-0.009003	-0.069275	0.003357	0.057678	-0.10742	-0.000305	-0.006256
19.581	0.019836	-0.002594	-0.096741	-0.003967	-0.023193	-0.032501	0.14358	0.035858	-0.054016	-0.052185	0.017395	-0.005188	-0.10223	0.019379	0.032654	-0.011444	0.00061	-0.013275	0.11017	0.1831	0.27298	-0.080566	0.53116	-0.074005	-0.24551	-0.021667	-0.10071	-0.002594	0.11322	-0.087738	-0.00061	-0.003204
19.582	0.031586	0.005646	-0.079193	0.000763	0.15335	-0.072937	-0.02594	0.004272	-0.034027	-0.048981	0.003357	-0.000763	0.069275	0.02182	-0.020142	-0.017548	0.013275	-0.050201	-0.19409	0.06958	0.29785	-0.026855	0.25146	0.2124	0.082855	-0.025635	-0.075531	0.001373	0.11185	-0.042267	-0.003357	-0.013885
19.583	0.03067	0.000153	-0.10178	0.016327	0.094147	-0.04425	-0.16052	0.016479	0.079651	-0.06073	-0.012817	-0.007019	-0.02594	0.080566	-0.019379	-0.011749	-0.020294	-0.008087	-0.26916	0.003357	0.19898	0.028534	-0.1239	0.41809	0.38284	-0.007935	-0.018768	-0.003052	-0.031433	0.010986	0.000763	-0.015106
19.584	0.02121	-0.03891	-0.078735	0.00473	0.062408	0.010376	-0.006866	0.019226	0.045166	-0.057526	-0.017395	-0.010834	-0.11459	0.12619	0.006561	-0.006714	-0.013733	-0.019684	-0.26489	-0.026245	0.14694	0.008392	-0.10071	0.23239	0.37705	0.012207	0.016632	0.006256	-0.075378	-0.027618	-0.001831	-0.016632
19.585	0.005951	-0.026703	-0.062714	0.007324	0.062103	0.021057	0.098114	0.001984	-0.00885	-0.050201	-0.046234	-0.002441	0.20172	0.12817	0.023346	-0.007477	0.001984	-0.021362	-0.2063	-0.026093	0.15335	-0.008545	-0.066223	0.15701	0.24063	0.013733	0.028687	0.001221	-0.043182	0.021667	0.001831	-0.019379
